<svg viewBox="0 0 468 437" fill="none" xmlns="http://www.w3.org/2000/svg">
<g id="Group 1">
<g id="Vector">
<path d="M321.426 195.86V203.562H298.843C296.842 203.562 295.384 204.062 294.47 205.063C293.557 206.02 293.1 207.26 293.1 208.783C293.1 209.436 293.187 210.089 293.361 210.741C293.578 211.351 293.926 211.916 294.405 212.438C294.927 212.917 295.602 213.309 296.428 213.613C297.255 213.874 298.321 214.005 299.626 214.005H309.939C312.941 214.005 315.4 214.396 317.314 215.18C319.229 215.919 320.73 216.898 321.818 218.117C322.949 219.335 323.71 220.727 324.102 222.294C324.537 223.86 324.755 225.427 324.755 226.993C324.755 228.864 324.494 230.583 323.971 232.149C323.449 233.716 322.623 235.086 321.491 236.261C320.36 237.392 318.902 238.284 317.118 238.937C315.378 239.59 313.246 239.916 310.722 239.916H286.181V232.215H310.983C313.072 232.215 314.595 231.714 315.552 230.713C316.553 229.669 317.053 228.342 317.053 226.732C317.053 226.036 316.944 225.361 316.727 224.709C316.509 224.013 316.139 223.425 315.617 222.947C315.095 222.424 314.377 222.011 313.463 221.706C312.593 221.402 311.483 221.25 310.135 221.25H299.888C296.929 221.25 294.514 220.88 292.643 220.14C290.772 219.4 289.292 218.421 288.205 217.203C287.16 215.985 286.421 214.614 285.986 213.091C285.594 211.568 285.398 210.045 285.398 208.522C285.398 206.695 285.637 205.02 286.116 203.497C286.638 201.93 287.443 200.581 288.531 199.45C289.662 198.319 291.098 197.449 292.839 196.839C294.579 196.187 296.668 195.86 299.104 195.86H321.426Z" fill="#FF8A00" fill-opacity="0.85"/>
<path d="M174.704 195.86V203.562H156.951C155.211 203.562 153.753 203.758 152.578 204.149C151.403 204.541 150.468 205.085 149.772 205.781C149.075 206.434 148.575 207.217 148.27 208.131C148.009 209.001 147.879 209.958 147.879 211.003V215.18H174.443V222.49H147.879V239.916H140.177V211.068C140.177 208.849 140.46 206.825 141.026 204.998C141.635 203.127 142.592 201.517 143.898 200.168C145.203 198.819 146.878 197.775 148.923 197.035C151.012 196.252 153.514 195.86 156.429 195.86H174.704Z" fill="white"/>
<path d="M191.092 195.86V224.643C191.092 225.688 191.222 226.689 191.483 227.646C191.788 228.56 192.288 229.365 192.985 230.061C193.681 230.713 194.594 231.236 195.726 231.627C196.901 232.019 198.358 232.215 200.099 232.215H217.199V239.916H199.642C196.727 239.916 194.225 239.546 192.136 238.807C190.091 238.023 188.416 236.957 187.11 235.608C185.805 234.26 184.848 232.671 184.239 230.844C183.673 228.973 183.39 226.928 183.39 224.709V195.86H191.092Z" fill="white"/>
<path d="M230.975 205.455V239.916H224.057V205.455H230.975ZM231.04 192.466V200.494H224.057V192.466H231.04Z" fill="white"/>
<path d="M275.28 195.86V203.562H252.697C250.695 203.562 249.238 204.062 248.324 205.063C247.41 206.02 246.953 207.26 246.953 208.783C246.953 209.436 247.04 210.089 247.214 210.741C247.432 211.351 247.78 211.916 248.259 212.438C248.781 212.917 249.455 213.309 250.282 213.613C251.109 213.874 252.175 214.005 253.48 214.005H263.792C266.795 214.005 269.253 214.396 271.168 215.18C273.082 215.919 274.583 216.898 275.671 218.117C276.802 219.335 277.564 220.727 277.956 222.294C278.391 223.86 278.608 225.427 278.608 226.993C278.608 228.864 278.347 230.583 277.825 232.149C277.303 233.716 276.476 235.086 275.345 236.261C274.214 237.392 272.756 238.284 270.972 238.937C269.231 239.59 267.099 239.916 264.576 239.916H240.035V232.215H264.837C266.925 232.215 268.448 231.714 269.405 230.713C270.406 229.669 270.907 228.342 270.907 226.732C270.907 226.036 270.798 225.361 270.58 224.709C270.363 224.013 269.993 223.425 269.471 222.947C268.949 222.424 268.231 222.011 267.317 221.706C266.447 221.402 265.337 221.25 263.988 221.25H253.741C250.782 221.25 248.367 220.88 246.496 220.14C244.625 219.4 243.146 218.421 242.058 217.203C241.014 215.985 240.274 214.614 239.839 213.091C239.448 211.568 239.252 210.045 239.252 208.522C239.252 206.695 239.491 205.02 239.97 203.497C240.492 201.93 241.297 200.581 242.385 199.45C243.516 198.319 244.952 197.449 246.692 196.839C248.433 196.187 250.521 195.86 252.958 195.86H275.28Z" fill="white"/>
<path d="M141.744 252.052V255.417H145.966V252.052H147.422V260.312H145.966V256.861H141.744V260.312H140.3V252.052H141.744Z" fill="#7B868C"/>
<path d="M156.541 253.851C156.94 253.851 157.283 253.904 157.568 254.01C157.854 254.116 158.087 254.267 158.266 254.463C158.454 254.65 158.588 254.875 158.67 255.136C158.751 255.397 158.792 255.678 158.792 255.98V259.015C158.792 259.252 158.772 259.452 158.731 259.615C158.698 259.778 158.633 259.913 158.535 260.019C158.437 260.117 158.299 260.19 158.119 260.239C157.948 260.288 157.728 260.312 157.458 260.312H154.436C153.669 260.312 153.114 260.137 152.771 259.786C152.437 259.435 152.27 258.954 152.27 258.342C152.27 258.048 152.306 257.787 152.38 257.559C152.461 257.33 152.588 257.139 152.759 256.984C152.93 256.821 153.155 256.698 153.432 256.617C153.71 256.527 154.048 256.482 154.448 256.482H157.52V255.992C157.52 255.74 157.442 255.527 157.287 255.356C157.14 255.185 156.887 255.099 156.528 255.099H152.661V253.851H156.541ZM157.165 259.052C157.401 259.052 157.52 258.942 157.52 258.721V257.51H154.472C154.13 257.51 153.889 257.579 153.75 257.718C153.612 257.848 153.542 258.032 153.542 258.269C153.542 258.505 153.612 258.697 153.75 258.844C153.889 258.983 154.122 259.052 154.448 259.052H157.165Z" fill="#7B868C"/>
<path d="M167.259 253.851C168.361 253.851 169.176 254.1 169.707 254.597C170.245 255.087 170.514 255.78 170.514 256.678V260.312H169.205V256.678C169.205 256.164 169.05 255.772 168.74 255.503C168.438 255.234 167.945 255.099 167.259 255.099H165.142C165.036 255.099 164.983 255.16 164.983 255.283V260.312H163.686V254.854C163.686 254.471 163.755 254.21 163.894 254.071C164.033 253.924 164.265 253.851 164.591 253.851H167.259Z" fill="#7B868C"/>
<path d="M182.055 251.048V257.547C182.055 258.485 181.851 259.182 181.443 259.639C181.043 260.088 180.456 260.312 179.681 260.312H177.894C177.029 260.312 176.344 260.047 175.838 259.517C175.341 258.987 175.092 258.175 175.092 257.082C175.092 255.988 175.341 255.177 175.838 254.646C176.344 254.116 177.029 253.851 177.894 253.851H180.746V251.048H182.055ZM179.302 259.052C179.824 259.052 180.195 258.929 180.415 258.685C180.635 258.44 180.746 258.04 180.746 257.485V255.099H178.017C177.454 255.099 177.042 255.254 176.781 255.564C176.528 255.874 176.401 256.38 176.401 257.082C176.401 257.783 176.528 258.289 176.781 258.599C177.042 258.901 177.454 259.052 178.017 259.052H179.302Z" fill="#7B868C"/>
<path d="M188.263 251.048V260.312H186.966V251.048H188.263Z" fill="#7B868C"/>
<path d="M194.478 253.851V260.312H193.181V253.851H194.478ZM194.49 251.416V252.921H193.181V251.416H194.49Z" fill="#7B868C"/>
<path d="M202.968 253.851C204.07 253.851 204.886 254.1 205.416 254.597C205.954 255.087 206.224 255.78 206.224 256.678V260.312H204.914V256.678C204.914 256.164 204.759 255.772 204.449 255.503C204.147 255.234 203.654 255.099 202.968 255.099H200.851C200.745 255.099 200.692 255.16 200.692 255.283V260.312H199.395V254.854C199.395 254.471 199.464 254.21 199.603 254.071C199.742 253.924 199.974 253.851 200.301 253.851H202.968Z" fill="#7B868C"/>
<path d="M215.39 253.851C216.165 253.851 216.753 254.079 217.152 254.536C217.56 254.985 217.764 255.678 217.764 256.617V260.337C217.764 260.794 217.719 261.185 217.63 261.512C217.548 261.838 217.409 262.103 217.214 262.307C217.026 262.511 216.773 262.658 216.455 262.748C216.145 262.846 215.765 262.894 215.317 262.894H211.474V261.646H215.17C215.651 261.646 215.986 261.544 216.173 261.34C216.361 261.136 216.455 260.802 216.455 260.337V260.043H213.603C212.739 260.043 212.053 259.79 211.547 259.284C211.05 258.77 210.801 257.987 210.801 256.935C210.801 255.89 211.05 255.115 211.547 254.61C212.053 254.104 212.739 253.851 213.603 253.851H215.39ZM212.11 256.984C212.11 257.645 212.237 258.126 212.49 258.428C212.751 258.721 213.163 258.868 213.726 258.868H216.455V256.604C216.455 256.074 216.345 255.691 216.124 255.454C215.904 255.217 215.533 255.099 215.011 255.099H213.726C213.163 255.099 212.751 255.25 212.49 255.552C212.237 255.846 212.11 256.323 212.11 256.984Z" fill="#7B868C"/>
<path d="M229.194 253.851V253.276C229.194 252.851 229.231 252.497 229.304 252.211C229.378 251.925 229.492 251.697 229.647 251.526C229.802 251.354 229.998 251.232 230.234 251.159C230.479 251.085 230.769 251.048 231.103 251.048H232.266V252.235H231.372C231.062 252.235 230.838 252.305 230.699 252.443C230.569 252.582 230.504 252.835 230.504 253.202V253.851H232.29V255.099H230.504V260.312H229.194V255.099H228.313V253.851H229.194Z" fill="#7B868C"/>
<path d="M237.907 251.048V260.312H236.61V251.048H237.907Z" fill="#7B868C"/>
<path d="M246.679 253.851C247.536 253.851 248.217 254.12 248.723 254.659C249.229 255.189 249.482 255.997 249.482 257.082C249.482 258.175 249.229 258.987 248.723 259.517C248.217 260.047 247.536 260.312 246.679 260.312H245.321C244.456 260.312 243.771 260.047 243.265 259.517C242.767 258.987 242.519 258.175 242.519 257.082C242.519 255.988 242.767 255.177 243.265 254.646C243.771 254.116 244.456 253.851 245.321 253.851H246.679ZM245.443 255.099C244.881 255.099 244.469 255.254 244.207 255.564C243.955 255.874 243.828 256.38 243.828 257.082C243.828 257.783 243.955 258.289 244.207 258.599C244.469 258.901 244.881 259.052 245.443 259.052H246.557C247.12 259.052 247.528 258.901 247.781 258.599C248.042 258.289 248.172 257.783 248.172 257.082C248.172 256.38 248.042 255.874 247.781 255.564C247.528 255.254 247.12 255.099 246.557 255.099H245.443Z" fill="#7B868C"/>
<path d="M254.568 253.851L255.143 258.893C255.16 259.031 255.201 259.138 255.266 259.211C255.339 259.276 255.453 259.309 255.608 259.309C255.755 259.309 255.861 259.28 255.927 259.223C256 259.158 256.053 259.068 256.086 258.954L257.004 255.038C257.101 254.605 257.293 254.279 257.579 254.059C257.864 253.839 258.264 253.728 258.778 253.728C259.292 253.728 259.684 253.839 259.953 254.059C260.222 254.279 260.406 254.605 260.504 255.038L261.372 258.954C261.421 259.191 261.585 259.309 261.862 259.309C262.009 259.309 262.115 259.276 262.18 259.211C262.245 259.138 262.286 259.031 262.302 258.893L262.976 253.851H264.383L263.661 258.966C263.596 259.415 263.424 259.778 263.147 260.055C262.869 260.325 262.437 260.459 261.85 260.459C261.344 260.459 260.952 260.349 260.675 260.129C260.397 259.908 260.21 259.574 260.112 259.125L259.243 255.197C259.219 255.083 259.161 255.001 259.072 254.952C258.99 254.903 258.888 254.879 258.766 254.879C258.497 254.879 258.337 254.985 258.288 255.197L257.371 259.125C257.265 259.574 257.069 259.908 256.783 260.129C256.498 260.349 256.098 260.459 255.584 260.459C255.282 260.459 255.025 260.422 254.813 260.349C254.609 260.276 254.438 260.174 254.299 260.043C254.168 259.913 254.066 259.758 253.993 259.578C253.92 259.39 253.867 259.186 253.834 258.966L253.161 253.851H254.568Z" fill="#7B868C"/>
<path d="M280.441 253.851V255.099H276.867C276.565 255.099 276.349 255.16 276.219 255.283C276.088 255.405 276.023 255.589 276.023 255.833C276.023 256.062 276.084 256.237 276.207 256.36C276.337 256.474 276.582 256.531 276.941 256.531H278.458C278.907 256.531 279.274 256.58 279.56 256.678C279.853 256.776 280.082 256.906 280.245 257.069C280.416 257.233 280.535 257.424 280.6 257.645C280.665 257.865 280.698 258.101 280.698 258.354C280.698 258.64 280.657 258.905 280.575 259.15C280.502 259.386 280.38 259.59 280.208 259.762C280.037 259.933 279.817 260.068 279.547 260.165C279.278 260.263 278.956 260.312 278.581 260.312H274.824V259.052H278.581C278.882 259.052 279.099 258.999 279.229 258.893C279.36 258.779 279.425 258.595 279.425 258.342C279.425 258.081 279.352 257.897 279.205 257.791C279.066 257.677 278.834 257.62 278.507 257.62H276.977C276.529 257.62 276.162 257.571 275.876 257.473C275.591 257.367 275.362 257.228 275.191 257.057C275.028 256.878 274.913 256.674 274.848 256.445C274.783 256.217 274.75 255.98 274.75 255.735C274.75 255.156 274.913 254.699 275.24 254.365C275.566 254.022 276.105 253.851 276.855 253.851H280.441Z" fill="#7B868C"/>
<path d="M285.519 253.851V252.321H286.828V253.851H288.615V255.099H286.828V258.159C286.828 258.526 286.893 258.779 287.024 258.917C287.163 259.056 287.387 259.125 287.697 259.125H288.59V260.312H287.428C287.093 260.312 286.804 260.276 286.559 260.202C286.322 260.129 286.126 260.006 285.971 259.835C285.816 259.664 285.702 259.435 285.629 259.15C285.555 258.864 285.519 258.509 285.519 258.085V255.099H284.638V253.851H285.519Z" fill="#7B868C"/>
<path d="M297.071 253.851C297.471 253.851 297.813 253.904 298.099 254.01C298.385 254.116 298.617 254.267 298.797 254.463C298.984 254.65 299.119 254.875 299.2 255.136C299.282 255.397 299.323 255.678 299.323 255.98V259.015C299.323 259.252 299.302 259.452 299.262 259.615C299.229 259.778 299.164 259.913 299.066 260.019C298.968 260.117 298.829 260.19 298.65 260.239C298.478 260.288 298.258 260.312 297.989 260.312H294.966C294.199 260.312 293.644 260.137 293.302 259.786C292.967 259.435 292.8 258.954 292.8 258.342C292.8 258.048 292.837 257.787 292.91 257.559C292.992 257.33 293.118 257.139 293.29 256.984C293.461 256.821 293.685 256.698 293.963 256.617C294.24 256.527 294.579 256.482 294.978 256.482H298.05V255.992C298.05 255.74 297.973 255.527 297.818 255.356C297.671 255.185 297.418 255.099 297.059 255.099H293.192V253.851H297.071ZM297.695 259.052C297.932 259.052 298.05 258.942 298.05 258.721V257.51H295.003C294.66 257.51 294.42 257.579 294.281 257.718C294.142 257.848 294.073 258.032 294.073 258.269C294.073 258.505 294.142 258.697 294.281 258.844C294.42 258.983 294.652 259.052 294.978 259.052H297.695Z" fill="#7B868C"/>
<path d="M304.449 253.851V252.321H305.758V253.851H307.545V255.099H305.758V258.159C305.758 258.526 305.824 258.779 305.954 258.917C306.093 259.056 306.317 259.125 306.627 259.125H307.521V260.312H306.358C306.023 260.312 305.734 260.276 305.489 260.202C305.252 260.129 305.057 260.006 304.902 259.835C304.747 259.664 304.632 259.435 304.559 259.15C304.486 258.864 304.449 258.509 304.449 258.085V255.099H303.568V253.851H304.449Z" fill="#7B868C"/>
<path d="M316.075 253.851C316.842 253.851 317.396 254.026 317.739 254.377C318.082 254.72 318.253 255.205 318.253 255.833C318.253 256.429 318.086 256.89 317.751 257.216C317.417 257.534 316.854 257.693 316.062 257.693H312.991V258.159C312.991 258.42 313.064 258.636 313.211 258.807C313.366 258.97 313.623 259.052 313.982 259.052H317.935V260.312H313.982C313.574 260.312 313.227 260.259 312.942 260.153C312.664 260.047 312.432 259.9 312.244 259.713C312.065 259.517 311.934 259.293 311.853 259.04C311.771 258.779 311.73 258.493 311.73 258.183V255.98C311.73 255.678 311.771 255.397 311.853 255.136C311.934 254.875 312.065 254.65 312.244 254.463C312.432 254.267 312.664 254.116 312.942 254.01C313.227 253.904 313.574 253.851 313.982 253.851H316.075ZM312.991 256.678H316.026C316.377 256.678 316.621 256.608 316.76 256.47C316.907 256.331 316.98 256.143 316.98 255.907C316.98 255.662 316.907 255.466 316.76 255.319C316.613 255.172 316.381 255.099 316.062 255.099H313.982C313.623 255.099 313.366 255.185 313.211 255.356C313.064 255.527 312.991 255.74 312.991 255.992V256.678Z" fill="#7B868C"/>
<path d="M328.292 253.851V255.099H324.719C324.417 255.099 324.201 255.16 324.07 255.283C323.94 255.405 323.874 255.589 323.874 255.833C323.874 256.062 323.936 256.237 324.058 256.36C324.188 256.474 324.433 256.531 324.792 256.531H326.31C326.758 256.531 327.125 256.58 327.411 256.678C327.705 256.776 327.933 256.906 328.096 257.069C328.268 257.233 328.386 257.424 328.451 257.645C328.516 257.865 328.549 258.101 328.549 258.354C328.549 258.64 328.508 258.905 328.427 259.15C328.353 259.386 328.231 259.59 328.06 259.762C327.888 259.933 327.668 260.068 327.399 260.165C327.13 260.263 326.807 260.312 326.432 260.312H322.675V259.052H326.432C326.734 259.052 326.95 258.999 327.081 258.893C327.211 258.779 327.276 258.595 327.276 258.342C327.276 258.081 327.203 257.897 327.056 257.791C326.917 257.677 326.685 257.62 326.359 257.62H324.829C324.38 257.62 324.013 257.571 323.727 257.473C323.442 257.367 323.213 257.228 323.042 257.057C322.879 256.878 322.765 256.674 322.699 256.445C322.634 256.217 322.602 255.98 322.602 255.735C322.602 255.156 322.765 254.699 323.091 254.365C323.417 254.022 323.956 253.851 324.706 253.851H328.292Z" fill="#7B868C"/>
</g>
<g id="Group 4">
<g id="Vector_2" filter="url(#filter0_b_13_2)">
<path d="M463.595 218.5C463.595 336.965 360.711 433 233.797 433C106.884 433 4 336.965 4 218.5C4 100.035 106.884 4 233.797 4C360.711 4 463.595 100.035 463.595 218.5Z" stroke="url(#paint0_angular_13_2)" stroke-opacity="0.75" stroke-width="8"/>
</g>
<path id="Ellipse 8" d="M434 218.5C434 329.233 344.233 419 233.5 419C122.767 419 33 329.233 33 218.5C33 107.767 122.767 18 233.5 18C344.233 18 434 107.767 434 218.5Z" stroke="url(#paint1_radial_13_2)" stroke-width="30" stroke-dasharray="2 2"/>
</g>
</g>
<defs>
<filter id="filter0_b_13_2" x="-4" y="-4" width="475.594" height="445" filterUnits="userSpaceOnUse" color-interpolation-filters="sRGB">
<feFlood flood-opacity="0" result="BackgroundImageFix"/>
<feGaussianBlur in="BackgroundImage" stdDeviation="2"/>
<feComposite in2="SourceAlpha" operator="in" result="effect1_backgroundBlur_13_2"/>
<feBlend mode="normal" in="SourceGraphic" in2="effect1_backgroundBlur_13_2" result="shape"/>
</filter>
<radialGradient id="paint0_angular_13_2" cx="0" cy="0" r="1" gradientUnits="userSpaceOnUse" gradientTransform="translate(233.797 218.5) rotate(-0.160943) scale(121.018 129.648)">
<stop offset="0.18022" stop-color="#0BEEFD"/>
<stop offset="1" stop-color="#FF8A00"/>
</radialGradient>
<radialGradient id="paint1_radial_13_2" cx="0" cy="0" r="1" gradientUnits="userSpaceOnUse" gradientTransform="translate(233.5 218.5) rotate(90) scale(200.5)">
<stop stop-color="#FFB800"/>
<stop offset="1" stop-color="#FFB800" stop-opacity="0"/>
</radialGradient>
</defs>
</svg>
